<?xml version="1.0" standalone="no"?><!DOCTYPE svg PUBLIC "-//W3C//DTD SVG 1.1//EN" "http://www.w3.org/Graphics/SVG/1.1/DTD/svg11.dtd"><svg t="1645338654450" class="icon" viewBox="0 0 1024 1024" version="1.1" xmlns="http://www.w3.org/2000/svg" p-id="13188" data-spm-anchor-id="a313x.7781069.0.i0" xmlns:xlink="http://www.w3.org/1999/xlink" width="200" height="200"><defs><style type="text/css"></style></defs><path d="M665.6 640h76.8c12.8 0 25.6-12.8 25.6-25.6V345.6c0-12.8-12.8-25.6-25.6-25.6h-76.8c-12.8 0-25.6 12.8-25.6 25.6v268.8c0 12.8 12.8 25.6 25.6 25.6z m192 0h76.8c12.8 0 25.6-12.8 25.6-25.6V153.6c0-12.8-12.8-25.6-25.6-25.6h-76.8c-12.8 0-25.6 12.8-25.6 25.6v460.8c0 12.8 12.8 25.6 25.6 25.6z m-576 0h76.8c12.8 0 25.6-12.8 25.6-25.6v-140.8c0-12.8-12.8-25.6-25.6-25.6h-76.8c-12.8 0-25.6 12.8-25.6 25.6v140.8c0 12.8 12.8 25.6 25.6 25.6z m192 0h76.8c12.8 0 25.6-12.8 25.6-25.6V217.6c0-12.8-12.8-25.6-25.6-25.6h-76.8c-12.8 0-25.6 12.8-25.6 25.6v396.8c0 12.8 12.8 25.6 25.6 25.6zM992 768H128V160c0-17.68-14.32-32-32-32H32C14.32 128 0 142.32 0 160v672c0 35.34 28.66 64 64 64h928c17.68 0 32-14.32 32-32v-64c0-17.68-14.32-32-32-32z" p-id="13189" data-spm-anchor-id="a313x.7781069.0.i1" class="selected" fill="#409EFF"></path></svg>