<?xml version="1.0" standalone="no"?><!DOCTYPE svg PUBLIC "-//W3C//DTD SVG 1.1//EN" "http://www.w3.org/Graphics/SVG/1.1/DTD/svg11.dtd"><svg t="1645259047306" class="icon" viewBox="0 0 1024 1024" version="1.1" xmlns="http://www.w3.org/2000/svg" p-id="9309" xmlns:xlink="http://www.w3.org/1999/xlink" width="200" height="200"><defs><style type="text/css"></style></defs><path d="M512 512m-512 0a512 512 0 1 0 1024 0 512 512 0 1 0-1024 0Z" fill="#C7B3FF" p-id="9310"></path><path d="M698.181818 302.545455v-51.665455A41.425455 41.425455 0 0 0 656.756364 209.454545H367.243636A41.425455 41.425455 0 0 0 325.818182 250.88V302.545455a186.181818 186.181818 0 0 0 96.349091 162.90909h2.327272l3.956364 2.094546a48.407273 48.407273 0 0 1 0 86.109091A186.181818 186.181818 0 0 0 325.818182 721.454545v51.665455A41.425455 41.425455 0 0 0 367.243636 814.545455h289.512728A41.425455 41.425455 0 0 0 698.181818 773.12V721.454545a186.181818 186.181818 0 0 0-103.563636-166.632727 48.174545 48.174545 0 0 1 0-85.410909l3.956363-2.094545 3.025455-1.629091A186.181818 186.181818 0 0 0 698.181818 302.545455z m-78.429091 88.901818A139.636364 139.636364 0 0 1 523.636364 442.181818v197.818182s110.312727 128 99.84 128h-222.952728a11.636364 11.636364 0 0 1-8.145454-19.781818l107.985454-108.218182V442.181818a139.636364 139.636364 0 0 1-96.349091-50.501818 11.636364 11.636364 0 0 1 9.309091-19.083636h197.352728a11.636364 11.636364 0 0 1 9.076363 18.850909z" fill="#8554EF" p-id="9311"></path></svg>