<?xml version="1.0" standalone="no"?><!DOCTYPE svg PUBLIC "-//W3C//DTD SVG 1.1//EN" "http://www.w3.org/Graphics/SVG/1.1/DTD/svg11.dtd"><svg t="1645260278756" class="icon" viewBox="0 0 1024 1024" version="1.1" xmlns="http://www.w3.org/2000/svg" p-id="1049" xmlns:xlink="http://www.w3.org/1999/xlink" width="200" height="200"><defs><style type="text/css"></style></defs><path d="M935.253333 443.733333l-152.576-264.192a136.533333 136.533333 0 0 0-118.101333-68.266666h-305.152a136.533333 136.533333 0 0 0-118.101333 68.266666L88.746667 443.733333a136.533333 136.533333 0 0 0 0 136.533334l152.576 264.192a136.533333 136.533333 0 0 0 118.101333 68.266666h305.152a136.533333 136.533333 0 0 0 118.101333-68.266666L935.253333 580.266667a136.533333 136.533333 0 0 0 0-136.533334zM512 664.576A152.576 152.576 0 1 1 664.576 512 152.576 152.576 0 0 1 512 664.576z" fill="#409EFF" p-id="1050" data-spm-anchor-id="a313x.7781069.0.i0" class="selected"></path></svg>